# xmcd
#
# Track frame offsets:
#	150
#	14517
#	26400
#	36612
#	53887
#	65005
#	81067
#	92487
#	105755
#	117917
#	130147
#	148725
#
# Disc length: 2155 seconds
#
# Revision: 1
# Processed by: cddbd v1.5.1PL0 Copyright (c) Steve Scherf et al.
# Submitted via: CDex 1.50Beta5
#
DISCID=9d08690c
DTITLE=ワルツ - ダンス音楽・ワルツ
DYEAR=1900
DGENRE=Dnace
TTITLE0=エデンの東
TTITLE1=嘘は罪
TTITLE2=知りたくないの
TTITLE3=サンライズ・サンセット
TTITLE4=詩人の魂(ウインナ・ワルツ)
TTITLE5=イフ
TTITLE6=テネシーワルツ
TTITLE7=アヴェ・マリア
TTITLE8=パリのめぐり逢い
TTITLE9=ロミオとジュリエット
TTITLE10=白い恋人
TTITLE11=ラスト・ワルツ
EXTD=
EXTT0=
EXTT1=
EXTT2=
EXTT3=
EXTT4=
EXTT5=
EXTT6=
EXTT7=
EXTT8=
EXTT9=
EXTT10=
EXTT11=
PLAYORDER=
